<svg xmlns="http://www.w3.org/2000/svg" width="32" height="32" viewBox="0 0 32 32" role="img" aria-label="mac-screenshot-selection cursor"><title>mac-screenshot-selection cursor</title><polyline points="5.5,11.5 5.5,5.5 11.5,5.5" fill="none" stroke="#ffffff" stroke-width="4.8" stroke-linecap="round" stroke-linejoin="round"/><polyline points="20.5,5.5 26.5,5.5 26.5,11.5" fill="none" stroke="#ffffff" stroke-width="4.8" stroke-linecap="round" stroke-linejoin="round"/><polyline points="26.5,20.5 26.5,26.5 20.5,26.5" fill="none" stroke="#ffffff" stroke-width="4.8" stroke-linecap="round" stroke-linejoin="round"/><polyline points="11.5,26.5 5.5,26.5 5.5,20.5" fill="none" stroke="#ffffff" stroke-width="4.8" stroke-linecap="round" stroke-linejoin="round"/><line x1="16" y1="10.5" x2="16" y2="21.5" fill="none" stroke="#ffffff" stroke-width="4.6" stroke-linecap="round" stroke-linejoin="round"/><line x1="10.5" y1="16" x2="21.5" y2="16" fill="none" stroke="#ffffff" stroke-width="4.6" stroke-linecap="round" stroke-linejoin="round"/><polyline points="5.5,11.5 5.5,5.5 11.5,5.5" fill="none" stroke="#1a1a1a" stroke-width="2" stroke-linecap="round" stroke-linejoin="round"/><polyline points="20.5,5.5 26.5,5.5 26.5,11.5" fill="none" stroke="#1a1a1a" stroke-width="2" stroke-linecap="round" stroke-linejoin="round"/><polyline points="26.5,20.5 26.5,26.5 20.5,26.5" fill="none" stroke="#1a1a1a" stroke-width="2" stroke-linecap="round" stroke-linejoin="round"/><polyline points="11.5,26.5 5.5,26.5 5.5,20.5" fill="none" stroke="#1a1a1a" stroke-width="2" stroke-linecap="round" stroke-linejoin="round"/><line x1="16" y1="10.5" x2="16" y2="21.5" fill="none" stroke="#1a1a1a" stroke-width="1.8" stroke-linecap="round" stroke-linejoin="round"/><line x1="10.5" y1="16" x2="21.5" y2="16" fill="none" stroke="#1a1a1a" stroke-width="1.8" stroke-linecap="round" stroke-linejoin="round"/></svg>
